<?xml version="1.0" encoding="UTF-8" standalone="no"?>

<svg
   version="1.1"
   id="svg297"
   width="760.36035"
   height="113.56357"
   viewBox="0 0 760.36035 113.56357"
   sodipodiDocname="track-field.eps"
   xmlnsInkscape="http://www.inkscape.org/namespaces/inkscape"
   xmlnsSodipodi="http://sodipodi.sourceforge.net/DTD/sodipodi-0.dtd"
   xmlns="http://www.w3.org/2000/svg"
   xmlnsSvg="http://www.w3.org/2000/svg">
  <defs
     id="defs301" />
  <g
     id="g305"
     inkscapeGroupmode="layer"
     inkscapeLabel="Page 1"
     transform="matrix(1.3333333,0,0,-1.3333333,-1.0796879,114.70705)">
    <path
       d="m 538.28,22.7402 v 38.3903 c 5.906,0 8.861,-5.9067 8.861,-20.6735 0,-11.8105 -2.955,-14.7648 -8.861,-17.7168 z m -236.25,0 -5.904,11.8106 C 290.22,31.5988 290.22,16.834 302.03,22.7402 Z m 2.954,38.3903 c -5.906,2.9519 -5.906,8.8582 -2.954,8.8582 2.954,0 2.954,0 2.954,0 2.952,0 2.952,-5.9063 0,-8.8582 z m -174.236,-29.5317 2.954,23.625 2.952,-23.625 z M 77.5926,49.3176 v 17.7191 c 2.9543,0 5.9066,-2.9543 5.9066,-8.8605 0,-5.9063 -2.9523,-8.8586 -5.9066,-8.8586 z M 514.655,2.0668 v 82.6891 c 38.39,0 56.109,-5.9063 56.109,-38.3926 C 573.721,10.9277 555.999,2.0668 514.655,2.0668 Z m -502.0327,0 V 64.0824 H 0.809766 V 84.7559 H 51.0152 v 0 h 29.5317 c 8.8586,0 14.7648,-2.9543 20.6711,-8.861 2.954,-2.9519 8.859,-11.8125 5.906,-23.625 0,-2.9523 0,-2.9523 -2.952,-8.8586 -2.954,0 -5.906,-2.9543 -8.8603,-5.9062 l 8.8603,-17.7192 17.717,64.97 h 23.623 l 11.813,-41.3446 c 0,32.4836 20.673,47.2512 47.251,41.3446 V 61.1305 c -11.813,8.8582 -17.719,2.9519 -20.671,-5.9067 -2.955,-5.9062 -2.955,-14.7668 0,-23.625 2.952,-8.8586 8.858,-11.8129 20.671,-5.9066 V 5.02109 C 186.857,-3.83984 169.138,2.0668 163.231,16.834 L 166.186,2.0668 H 142.56 l -2.954,11.8129 H 127.795 L 124.841,2.0668 h -11.81 -5.907 -20.6709 l -8.8605,29.532 V 2.0668 H 51.0152 V 64.0824 H 39.2023 V 2.0668 Z m 194.9107,0 v 82.6891 h 23.623 V 55.2238 l 11.812,29.5321 h 23.626 L 251.829,46.3633 269.548,2.0668 h -26.58 L 231.156,37.5051 V 2.0668 Z m 106.31,5.90625 c -38.388,-23.62535 -59.062,23.62575 -29.53,41.34455 -8.858,20.6711 0,35.4383 20.671,35.4383 23.623,0 26.578,-26.5797 5.904,-38.3926 l 8.861,-11.8125 5.906,8.8605 11.813,-14.7648 -8.861,-8.8606 L 340.42,2.0668 H 316.795 Z M 352.233,2.0668 V 84.7559 H 393.58 V 64.0824 H 375.859 V 52.2699 H 393.58 V 34.5508 H 375.859 V 2.0668 Z m 44.297,82.6891 h 23.627 V 2.0668 H 396.53 Z M 423.109,2.0668 v 82.6891 h 41.345 V 64.0824 h -17.719 v -8.8586 h 17.719 V 34.5508 H 446.735 V 22.7402 h 20.674 V 2.0668 Z m 47.252,0 v 82.6891 h 23.623 V 25.6922 h 17.719 V 2.0668 h -41.342"
       style="fill:#f0f8ff;fill-opacity:1;fill-rule:evenodd;stroke:none;stroke-width:0.1"
       id="path311"
       inkscapeExport-filename="path311.svg"
       inkscapeExport-xdpi="6.74158"
       inkscapeExport-ydpi="6.74158" />
  </g>
</svg>
