<svg width="207" height="48" fill="none" xmlns="http://www.w3.org/2000/svg"><rect width="207" height="48" rx="12" fill="#25D366"/><g clip-path="url(#a)"><path fill-rule="evenodd" clip-rule="evenodd" d="M27.7462 12.4474c2.9024.014 5.7034 1.1536 7.7986 3.1621 2.1456 2.057 3.3822 4.8152 3.4903 7.7856.1056 2.9007-.9071 5.7501-2.8279 7.9262-2.1067 2.3867-5.0371 3.7574-8.2021 3.8483a11.3615 11.3615 0 0 1-.325.0046c-1.7054 0-3.3949-.3845-4.9252-1.1209l-5.9481 1.323a.0874.0874 0 0 1-.1033-.0974l1.0048-6.0144c-.8575-1.5668-1.3361-3.3321-1.3877-5.1278-.087-3.0341 1.0127-5.9203 3.0966-8.1273 2.1606-2.2882 5.1111-3.562 8.2727-3.562h.0563Zm-.0633 1.9717a9.576 9.576 0 0 0-.2728.0039c-5.1765.1485-9.2671 4.4807-9.1186 9.6572.0454 1.5806.4907 3.1322 1.2878 4.4869l.173.2936-.7445 4.0812 4.0387-.9533.305.1587c1.3307.6924 2.8218 1.0553 4.3283 1.0553.0895 0 .1792-.0013.2687-.0039 5.1766-.1484 9.2672-4.4806 9.1187-9.6571-.1459-5.0851-4.3294-9.1225-9.3843-9.1225Zm-3.9285 3.9024c.1899.0059.3802.0113.5462.0235.2029.0146.4275.031.6265.5128.2362.5721.747 2.0004.8139 2.1453.0669.1449.1093.313.0084.5007-.1009.1873-.1521.3049-.2995.467-.1477.1623-.3111.3628-.4431.4867-.1474.1379-.3006.2879-.143.5785.1575.2907.701 1.2424 1.5255 2.0249 1.0596 1.0056 1.9093 1.3374 2.2468 1.4948.1218.0569.223.0839.3114.0839.1214 0 .2185-.0509.3112-.1448.1776-.18.712-.8036.937-1.0905.1177-.1501.2243-.2033.34-.2033.0926 0 .1911.0341.3061.08.2584.1032 1.639.8366 1.9198.9881.2808.1514.4686.2287.5363.3497.0676.1216.05.6927-.2081 1.3517-.2581.6591-1.4419 1.2661-1.9662 1.2975-.1535.0093-.3045.0307-.501.0307-.4751 0-1.2159-.1251-2.8986-.8498-2.8631-1.2329-4.6017-4.2625-4.7385-4.4571-.1365-.1949-1.1167-1.5831-1.0736-2.9873.0431-1.404.801-2.0718 1.0712-2.3493.259-.2661.5558-.334.7474-.334l.0239.0003Z" fill="#fff"/></g><defs><clipPath id="a"><path fill="#fff" transform="translate(16 11.5)" d="M0 0h24v24H0z"/></clipPath></defs></svg>